<?xml version="1.0" encoding="UTF-8"?>
<svg width="1154px" height="242px" viewBox="0 0 1154 242" version="1.1" xmlns="http://www.w3.org/2000/svg" xmlns:xlink="http://www.w3.org/1999/xlink">
    <title>newmask-logo-horizontal</title>
    <g id="newmask-logo-horizontal" stroke="none" stroke-width="1" fill="none" fill-rule="evenodd">
        <path d="M317.9,182.85 L317.9,83.45 L396.65,182.85 L407.325,182.85 L407.325,60.35 L394.55,60.35 L394.55,159.75 L315.625,60.35 L304.95,60.35 L304.95,182.85 L317.9,182.85 Z M483.625,183.725 C498.15,183.725 510.925,178.475 519.15,168.675 L512.15,160.625 C505.15,168.675 495.175,172.7 483.975,172.7 C463.85,172.7 449.15,159.925 447.75,140.675 L524.75,140.675 C524.75,139.275 524.925,137.875 524.925,136.825 C524.925,109.175 506.2,90.1 480.3,90.1 C454.4,90.1 435.325,109.525 435.325,136.825 C435.325,164.125 454.925,183.725 483.625,183.725 Z M513.025,131.4 L447.75,131.4 C449.325,113.375 462.45,100.775 480.3,100.775 C498.325,100.775 511.45,113.375 513.025,131.4 Z M579,182.85 L608.05,107.425 L637.1,182.85 L648.825,182.85 L683.65,90.8 L672.275,90.8 L643.05,169.025 L613.65,90.8 L602.975,90.8 L573.4,169.025 L544.525,90.8 L532.625,90.8 L567.275,182.85 L579,182.85 Z M717.425,182.85 L717.425,85.375 L765.55,167.275 L771.675,167.275 L819.8,84.85 L819.8,182.85 L832.225,182.85 L832.225,60.35 L821.55,60.35 L768.875,151.175 L715.675,60.35 L705,60.35 L705,182.85 L717.425,182.85 Z M895.4,183.725 C910.625,183.725 921.475,177.95 927.075,168.5 L927.075,182.85 L938.975,182.85 L938.975,125.8 C938.975,102 925.5,90.1 901.7,90.1 C887.175,90.1 873.525,94.65 864.25,102.525 L869.85,111.8 C877.375,105.15 888.575,100.95 900.475,100.95 C917.625,100.95 926.55,109.525 926.55,125.275 L926.55,130.875 L897.325,130.875 C870.9,130.875 861.8,142.775 861.8,156.95 C861.8,172.875 874.575,183.725 895.4,183.725 Z M897.325,173.925 C882.625,173.925 874.05,167.275 874.05,156.6 C874.05,147.15 879.825,140.15 897.675,140.15 L926.55,140.15 L926.55,155.2 C921.65,167.275 911.325,173.925 897.325,173.925 Z M997.425,183.725 C1021.4,183.725 1035.4,173.4 1035.4,157.475 C1035.4,122.125 975.725,140.85 975.725,116 C975.725,107.25 983.075,100.775 999.7,100.775 C1009.15,100.775 1018.775,103.05 1026.825,108.65 L1032.25,98.675 C1024.55,93.425 1011.6,90.1 999.7,90.1 C976.25,90.1 963.3,101.3 963.3,116.35 C963.3,152.75 1022.975,133.85 1022.975,157.825 C1022.975,166.925 1015.8,172.875 998.3,172.875 C985.35,172.875 972.925,168.325 965.575,162.55 L959.975,172.35 C967.5,178.825 982.2,183.725 997.425,183.725 Z M1070.75,182.85 L1070.75,156.6 L1092.45,136.65 L1129.55,182.85 L1144.775,182.85 L1101.725,128.425 L1141.1,90.8 L1125.7,90.8 L1070.75,141.025 L1070.75,53 L1058.325,53 L1058.325,182.85 L1070.75,182.85 Z" id="NewMask" fill="#000000" fill-rule="nonzero"></path>
        <circle id="Oval" fill="#FFFFFF" fill-rule="nonzero" cx="120.5" cy="121.5" r="111.5"></circle>
        <path d="M148.5708,95.5454 L148.5708,145.6554 C160.1648,144.1804 170.9008,141.6544 179.7028,138.2864 C193.0148,133.2324 200.9588,126.7064 200.9588,120.6004 C200.9588,114.4944 193.0148,107.9674 179.7028,102.9144 C170.6858,99.5454 160.1648,97.0194 148.5708,95.5454 L148.5708,95.5454 Z M96.3978,95.5454 C84.8038,97.0194 74.0688,99.5454 65.2658,102.9144 C51.9538,107.9674 44.0098,114.4944 44.0098,120.6004 C44.0098,126.7064 51.9538,133.2324 65.2658,138.2864 C74.2828,141.6544 84.8038,144.1804 96.3978,145.6554 L96.3978,95.5454 Z M122.5918,94.0714 C117.0088,94.0714 111.6418,94.2814 106.4888,94.7034 L106.4888,146.4974 C111.6418,146.9184 117.2238,147.1284 122.5918,147.1284 C128.1738,147.1284 133.5418,146.9184 138.6948,146.4974 L138.6948,94.7034 C133.5418,94.2814 127.9598,94.0714 122.5918,94.0714 L122.5918,94.0714 Z M162.9558,45.2254 L166.3918,54.4884 C153.9388,59.1214 148.5708,65.8584 148.5708,77.4384 L148.5708,85.6494 C161.6678,87.1234 173.4768,89.8604 183.3528,93.6504 C201.1738,100.3874 211.0498,109.8624 211.0498,120.6004 C211.0498,131.3374 201.1738,140.8124 183.3528,147.5494 C173.2618,151.3394 161.4528,154.0764 148.5708,155.5504 L148.5708,163.7614 C148.5708,179.5524 140.6268,190.0804 124.3098,195.9744 L120.8738,186.7114 C133.3268,182.0794 138.6948,175.3414 138.6948,163.7614 L138.6948,156.3924 C133.3268,156.8134 127.9598,157.0244 122.5918,157.0244 C117.2238,157.0244 111.6418,156.8134 106.4888,156.3924 L106.4888,163.7614 C106.4888,179.5524 98.3298,190.0804 82.0128,195.9744 L78.5768,186.7114 C91.0298,182.0794 96.3978,175.3414 96.3978,163.7614 L96.3978,155.5504 C83.3008,154.0764 71.4918,151.3394 61.6158,147.5494 C43.7948,140.8124 33.9188,131.1274 33.9188,120.6004 C33.9188,110.0724 43.7948,100.3874 61.6158,93.6504 C71.7068,89.8604 83.5158,87.1234 96.3978,85.6494 L96.3978,77.4384 C96.3978,61.6474 104.3418,51.1204 120.8738,45.2254 L124.3098,54.4884 C111.8568,59.1214 106.4888,65.8584 106.4888,77.4384 L106.4888,84.8074 C111.8568,84.3864 117.2238,84.1754 122.5918,84.1754 C127.9598,84.1754 133.5418,84.3864 138.6948,84.8074 L138.6948,77.4384 C138.6948,61.6474 146.6388,51.1204 162.9558,45.2254 L162.9558,45.2254 Z M120.5998,11.3064 C60.2388,11.3064 11.3058,60.2384 11.3058,120.6004 C11.3058,180.9614 60.2388,229.8934 120.5998,229.8934 C180.9618,229.8934 229.8938,180.9614 229.8938,120.6004 C229.8938,60.2384 180.9618,11.3064 120.5998,11.3064 L120.5998,11.3064 Z M120.5998,0.0004 C187.2058,0.0004 241.1998,53.9944 241.1998,120.6004 C241.1998,187.2054 187.2058,241.2004 120.5998,241.2004 C53.9948,241.2004 -0.0002,187.2054 -0.0002,120.6004 C-0.0002,53.9944 53.9948,0.0004 120.5998,0.0004 L120.5998,0.0004 Z" id="logo" fill="#131313" fill-rule="nonzero"></path>
    </g>
</svg>