<?xml version="1.0" encoding="UTF-8"?>
<svg width="32px" height="32px" viewBox="0 0 32 32" version="1.1" xmlns="http://www.w3.org/2000/svg" xmlns:xlink="http://www.w3.org/1999/xlink">
    <title>newmask-logo</title>
    <g id="newmask-logo" stroke="none" stroke-width="1" fill="none" fill-rule="evenodd">
        <circle id="Oval" fill="#FFFFFF" fill-rule="nonzero" cx="16" cy="16" r="15"></circle>
        <path d="M19.6457256,12.6341025 L19.6457256,19.2602182 C21.1788165,19.0651769 22.5984529,18.7311603 23.7623537,18.285805 C25.5226182,17.6175074 26.5730645,16.7545653 26.5730645,15.9471603 C26.5730645,15.1397554 25.5226182,14.276681 23.7623537,13.6085157 C22.5700231,13.1630281 21.1788165,12.8290116 19.6457256,12.6341025 L19.6457256,12.6341025 Z M12.7468165,12.6341025 C11.2137256,12.8290116 9.79422149,13.1630281 8.63018843,13.6085157 C6.86992397,14.276681 5.81947769,15.1397554 5.81947769,15.9471603 C5.81947769,16.7545653 6.86992397,17.6175074 8.63018843,18.285805 C9.82251901,18.7311603 11.2137256,19.0651769 12.7468165,19.2602182 L12.7468165,12.6341025 Z M16.210486,12.4391934 C15.472238,12.4391934 14.7625521,12.466962 14.0811636,12.5227636 L14.0811636,19.371557 C14.7625521,19.4272264 15.5006678,19.454995 16.210486,19.454995 C16.9486017,19.454995 17.6584198,19.4272264 18.3398083,19.371557 L18.3398083,12.5227636 C17.6584198,12.466962 16.9203041,12.4391934 16.210486,12.4391934 L16.210486,12.4391934 Z M21.5478744,5.98021818 L22.0022215,7.20507769 C20.3555438,7.81770579 19.6457256,8.70854876 19.6457256,10.2397884 L19.6457256,11.3255405 C21.3775603,11.5204496 22.939081,11.8823669 24.2449983,12.383524 C26.6014942,13.2743669 27.9074116,14.5272595 27.9074116,15.9471603 C27.9074116,17.3669289 26.6014942,18.6198215 24.2449983,19.5106645 C22.9106512,20.0118215 21.3491306,20.3737388 19.6457256,20.5686479 L19.6457256,21.6544 C19.6457256,23.7424661 18.5952793,25.1345983 16.4376595,25.9139702 L15.9833124,24.6891107 C17.6299901,24.0766149 18.3398083,23.1856397 18.3398083,21.6544 L18.3398083,20.6799868 C17.6299901,20.7356562 16.9203041,20.763557 16.210486,20.763557 C15.5006678,20.763557 14.7625521,20.7356562 14.0811636,20.6799868 L14.0811636,21.6544 C14.0811636,23.7424661 13.0022876,25.1345983 10.8446678,25.9139702 L10.3903207,24.6891107 C12.0369983,24.0766149 12.7468165,23.1856397 12.7468165,21.6544 L12.7468165,20.5686479 C11.0149818,20.3737388 9.45346116,20.0118215 8.1475438,19.5106645 C5.79104793,18.6198215 4.48513058,17.3391603 4.48513058,15.9471603 C4.48513058,14.5550281 5.79104793,13.2743669 8.1475438,12.383524 C9.48189091,11.8823669 11.0434116,11.5204496 12.7468165,11.3255405 L12.7468165,10.2397884 C12.7468165,8.15172231 13.7972628,6.75972231 15.9833124,5.98021818 L16.4376595,7.20507769 C14.7909818,7.81770579 14.0811636,8.70854876 14.0811636,10.2397884 L14.0811636,11.2142017 C14.7909818,11.1585322 15.5006678,11.1306314 16.210486,11.1306314 C16.9203041,11.1306314 17.6584198,11.1585322 18.3398083,11.2142017 L18.3398083,10.2397884 C18.3398083,8.15172231 19.3902545,6.75972231 21.5478744,5.98021818 L21.5478744,5.98021818 Z M15.947081,1.49506116 C7.96546116,1.49506116 1.49498182,7.96540826 1.49498182,15.9471603 C1.49498182,23.9287802 7.96546116,30.3991273 15.947081,30.3991273 C23.9288331,30.3991273 30.3991802,23.9287802 30.3991802,15.9471603 C30.3991802,7.96540826 23.9288331,1.49506116 15.947081,1.49506116 L15.947081,1.49506116 Z M15.947081,5.2892562e-05 C24.754486,5.2892562e-05 31.8941884,7.13975537 31.8941884,15.9471603 C31.8941884,24.7544331 24.754486,31.8942678 15.947081,31.8942678 C7.13980826,31.8942678 -2.6446281e-05,24.7544331 -2.6446281e-05,15.9471603 C-2.6446281e-05,7.13975537 7.13980826,5.2892562e-05 15.947081,5.2892562e-05 L15.947081,5.2892562e-05 Z" id="logo" fill="#131313" fill-rule="nonzero"></path>
    </g>
</svg>