<?xml version="1.0" encoding="UTF-8"?>
<svg width="1310px" height="241px" viewBox="0 0 1310 241" version="1.1" xmlns="http://www.w3.org/2000/svg" xmlns:xlink="http://www.w3.org/1999/xlink">
    <title>metamask-logo-horizontal的副本2</title>
    <defs>
        <polygon id="path-1" points="0 0.0004 241.1998 0.0004 241.1998 241.2 0 241.2"></polygon>
    </defs>
    <g id="metamask-logo-horizontal的副本2" stroke="none" stroke-width="1" fill="none" fill-rule="evenodd">
        <g transform="translate(0.000000, -1.000000)" id="编组">
            <mask id="mask-2" fill="white">
                <use xlink:href="#path-1"></use>
            </mask>
            <g id="Clip-2"></g>
            <circle id="椭圆形" fill="#FFFFFF" mask="url(#mask-2)" cx="120.5" cy="121.5" r="120.5"></circle>
            <path d="M148.5708,95.5454 L148.5708,145.6554 C160.1648,144.1804 170.9008,141.6544 179.7028,138.2864 C193.0148,133.2324 200.9588,126.7064 200.9588,120.6004 C200.9588,114.4944 193.0148,107.9674 179.7028,102.9144 C170.6858,99.5454 160.1648,97.0194 148.5708,95.5454 L148.5708,95.5454 Z M96.3978,95.5454 C84.8038,97.0194 74.0688,99.5454 65.2658,102.9144 C51.9538,107.9674 44.0098,114.4944 44.0098,120.6004 C44.0098,126.7064 51.9538,133.2324 65.2658,138.2864 C74.2828,141.6544 84.8038,144.1804 96.3978,145.6554 L96.3978,95.5454 Z M122.5918,94.0714 C117.0088,94.0714 111.6418,94.2814 106.4888,94.7034 L106.4888,146.4974 C111.6418,146.9184 117.2238,147.1284 122.5918,147.1284 C128.1738,147.1284 133.5418,146.9184 138.6948,146.4974 L138.6948,94.7034 C133.5418,94.2814 127.9598,94.0714 122.5918,94.0714 L122.5918,94.0714 Z M162.9558,45.2254 L166.3918,54.4884 C153.9388,59.1214 148.5708,65.8584 148.5708,77.4384 L148.5708,85.6494 C161.6678,87.1234 173.4768,89.8604 183.3528,93.6504 C201.1738,100.3874 211.0498,109.8624 211.0498,120.6004 C211.0498,131.3374 201.1738,140.8124 183.3528,147.5494 C173.2618,151.3394 161.4528,154.0764 148.5708,155.5504 L148.5708,163.7614 C148.5708,179.5524 140.6268,190.0804 124.3098,195.9744 L120.8738,186.7114 C133.3268,182.0794 138.6948,175.3414 138.6948,163.7614 L138.6948,156.3924 C133.3268,156.8134 127.9598,157.0244 122.5918,157.0244 C117.2238,157.0244 111.6418,156.8134 106.4888,156.3924 L106.4888,163.7614 C106.4888,179.5524 98.3298,190.0804 82.0128,195.9744 L78.5768,186.7114 C91.0298,182.0794 96.3978,175.3414 96.3978,163.7614 L96.3978,155.5504 C83.3008,154.0764 71.4918,151.3394 61.6158,147.5494 C43.7948,140.8124 33.9188,131.1274 33.9188,120.6004 C33.9188,110.0724 43.7948,100.3874 61.6158,93.6504 C71.7068,89.8604 83.5158,87.1234 96.3978,85.6494 L96.3978,77.4384 C96.3978,61.6474 104.3418,51.1204 120.8738,45.2254 L124.3098,54.4884 C111.8568,59.1214 106.4888,65.8584 106.4888,77.4384 L106.4888,84.8074 C111.8568,84.3864 117.2238,84.1754 122.5918,84.1754 C127.9598,84.1754 133.5418,84.3864 138.6948,84.8074 L138.6948,77.4384 C138.6948,61.6474 146.6388,51.1204 162.9558,45.2254 L162.9558,45.2254 Z M120.5998,11.3064 C60.2388,11.3064 11.3058,60.2384 11.3058,120.6004 C11.3058,180.9614 60.2388,229.8934 120.5998,229.8934 C180.9618,229.8934 229.8938,180.9614 229.8938,120.6004 C229.8938,60.2384 180.9618,11.3064 120.5998,11.3064 L120.5998,11.3064 Z M120.5998,0.0004 C187.2058,0.0004 241.1998,53.9944 241.1998,120.6004 C241.1998,187.2054 187.2058,241.2004 120.5998,241.2004 C53.9948,241.2004 -0.0002,187.2054 -0.0002,120.6004 C-0.0002,53.9944 53.9948,0.0004 120.5998,0.0004 L120.5998,0.0004 Z" id="Fill-1" fill="#131313" mask="url(#mask-2)"></path>
        </g>
        <text id="NEWMASK" font-family="Montserrat-Regular, Montserrat" font-size="150" font-weight="normal" letter-spacing="22" fill="#000000">
            <tspan x="333.425" y="174">NEWMASK</tspan>
        </text>
    </g>
</svg>