<?xml version="1.0" encoding="UTF-8"?>
<svg width="80px" height="78px" viewBox="0 0 80 78" version="1.1" xmlns="http://www.w3.org/2000/svg" xmlns:xlink="http://www.w3.org/1999/xlink">
    <title>deposit-new</title>
    <g id="deposit-new" stroke="none" stroke-width="1" fill="none" fill-rule="evenodd">
        <circle id="Oval" fill="#FFFFFF" fill-rule="nonzero" cx="33.9257654" cy="34.207307" r="32.1588102"></circle>
        <path d="M41.8288639,26.9000068 L41.8288639,41.0080575 C45.0930575,40.5927836 48.1156884,39.8816095 50.5938177,38.9333773 C54.3416998,37.5104659 56.5782664,35.6731253 56.5782664,33.9540322 C56.5782664,32.234939 54.3416998,30.3973169 50.5938177,28.9746871 C48.0551569,28.0261733 45.0930575,27.3149992 41.8288639,26.9000068 L41.8288639,26.9000068 Z M27.1399929,26.9000068 C23.8757994,27.3149992 20.8534501,28.0261733 18.3750392,28.9746871 C14.6271571,30.3973169 12.3905905,32.234939 12.3905905,33.9540322 C12.3905905,35.6731253 14.6271571,37.5104659 18.3750392,38.9333773 C20.9137,39.8816095 23.8757994,40.5927836 27.1399929,41.0080575 L27.1399929,26.9000068 Z M34.5146942,26.4850145 C32.9428473,26.4850145 31.4318134,26.5441382 29.9810294,26.6629488 L29.9810294,41.2451155 C31.4318134,41.3636446 33.0033787,41.4227683 34.5146942,41.4227683 C36.0862595,41.4227683 37.5975749,41.3636446 39.0483589,41.2451155 L39.0483589,26.6629488 C37.5975749,26.5441382 36.0260096,26.4850145 34.5146942,26.4850145 L34.5146942,26.4850145 Z M45.8788402,12.7328324 L46.8462172,15.3407525 C43.3401794,16.6451348 41.8288639,18.5418807 41.8288639,21.8021327 L41.8288639,24.113871 C45.5162146,24.5288633 48.8409396,25.2994427 51.6214446,26.3664855 C56.6387979,28.2632314 59.4193029,30.9308382 59.4193029,33.9540322 C59.4193029,36.9769446 56.6387979,39.6445514 51.6214446,41.5412973 C48.7804081,42.6083401 45.4556831,43.3789195 41.8288639,43.7939118 L41.8288639,46.1056501 C41.8288639,50.5514738 39.5922973,53.515544 34.9983827,55.1749504 L34.0310057,52.5670303 C37.5370435,51.2629295 39.0483589,49.3659021 39.0483589,46.1056501 L39.0483589,44.0309699 C37.5370435,44.1494989 36.0260096,44.2089042 34.5146942,44.2089042 C33.0033787,44.2089042 31.4318134,44.1494989 29.9810294,44.0309699 L29.9810294,46.1056501 C29.9810294,50.5514738 27.6839313,53.515544 23.0900167,55.1749504 L22.1226397,52.5670303 C25.6286775,51.2629295 27.1399929,49.3659021 27.1399929,46.1056501 L27.1399929,43.7939118 C23.4526423,43.3789195 20.1279173,42.6083401 17.3474122,41.5412973 C12.330059,39.6445514 9.54955395,36.9178208 9.54955395,33.9540322 C9.54955395,30.989962 12.330059,28.2632314 17.3474122,26.3664855 C20.1884487,25.2994427 23.5131738,24.5288633 27.1399929,24.113871 L27.1399929,21.8021327 C27.1399929,17.356309 29.3765596,14.3925203 34.0310057,12.7328324 L34.9983827,15.3407525 C31.4923448,16.6451348 29.9810294,18.5418807 29.9810294,21.8021327 L29.9810294,23.8768129 C31.4923448,23.7582839 33.0033787,23.6988786 34.5146942,23.6988786 C36.0260096,23.6988786 37.5975749,23.7582839 39.0483589,23.8768129 L39.0483589,21.8021327 C39.0483589,17.356309 41.2849255,14.3925203 45.8788402,12.7328324 L45.8788402,12.7328324 Z M33.9538632,3.18322219 C16.9597294,3.18322219 3.18305326,16.9596168 3.18305326,33.9540322 C3.18305326,50.948166 16.9597294,64.7245606 33.9538632,64.7245606 C50.9482786,64.7245606 64.7246732,50.948166 64.7246732,33.9540322 C64.7246732,16.9596168 50.9482786,3.18322219 33.9538632,3.18322219 L33.9538632,3.18322219 Z M33.9538632,0.000112616649 C52.7062245,0.000112616649 67.9077828,15.2016709 67.9077828,33.9540322 C67.9077828,52.7061119 52.7062245,67.9079517 33.9538632,67.9079517 C15.2017835,67.9079517 -5.63083243e-05,52.7061119 -5.63083243e-05,33.9540322 C-5.63083243e-05,15.2016709 15.2017835,0.000112616649 33.9538632,0.000112616649 L33.9538632,0.000112616649 Z" id="logo" fill="#38393A" fill-rule="nonzero"></path>
        <circle id="Oval" fill="#FFFFFF" fill-rule="nonzero" cx="63" cy="61" r="17"></circle>
        <circle id="Oval" stroke="#38393A" stroke-width="3" cx="63" cy="61" r="15.5"></circle>
        <polygon id="Path" fill="#38393A" fill-rule="nonzero" points="65.077 59.423 71.5 59.423 71.5 63.577 65.077 63.577 65.077 70 60.923 70 60.923 63.577 54.5 63.577 54.5 59.423 60.923 59.423 60.923 53 65.077 53"></polygon>
    </g>
</svg>