<?xml version="1.0" encoding="UTF-8"?>
<svg width="26px" height="26px" viewBox="0 0 26 26" version="1.1" xmlns="http://www.w3.org/2000/svg" xmlns:xlink="http://www.w3.org/1999/xlink">
    <title>new</title>
    <g id="new" stroke="none" stroke-width="1" fill="none" fill-rule="evenodd">
        <circle id="Oval" fill="#FFFFFF" fill-rule="nonzero" cx="13.0000215" cy="12.9999569" r="12"></circle>
        <path d="M15.9934107,10.2852536 L15.9934107,15.6795083 C17.2414847,15.5207271 18.3971965,15.2488076 19.3447165,14.8862482 C20.7777302,14.3421939 21.6328881,13.6396813 21.6328881,12.982381 C21.6328881,12.3250806 20.7777302,11.6224604 19.3447165,11.0785137 C18.3740521,10.7158467 17.2414847,10.4439272 15.9934107,10.2852536 L15.9934107,10.2852536 Z M10.3770776,10.2852536 C9.12900364,10.4439272 7.97339949,10.7158467 7.0257718,11.0785137 C5.59275807,11.6224604 4.73760023,12.3250806 4.73760023,12.982381 C4.73760023,13.6396813 5.59275807,14.3421939 7.0257718,14.8862482 C7.99643622,15.2488076 9.12900364,15.5207271 10.3770776,15.6795083 L10.3770776,10.2852536 Z M13.1968163,10.1265801 C12.595816,10.1265801 12.0180678,10.1491862 11.4633563,10.1946138 L11.4633563,15.7701481 C12.0180678,15.8154681 12.6189604,15.8380742 13.1968163,15.8380742 C13.797709,15.8380742 14.3755648,15.8154681 14.9302764,15.7701481 L14.9302764,10.1946138 C14.3755648,10.1491862 13.7746722,10.1265801 13.1968163,10.1265801 L13.1968163,10.1265801 Z M17.541931,4.86839288 L17.9118104,5.86553877 C16.5712666,6.3642732 15.9934107,7.08949957 15.9934107,8.3360665 L15.9934107,9.21996642 C17.40328,9.37863997 18.6744984,9.67327328 19.7376327,10.0812602 C21.6560324,10.8064865 22.7191667,11.8264539 22.7191667,12.982381 C22.7191667,14.1382004 21.6560324,15.1581677 19.7376327,15.8833941 C18.651354,16.291381 17.3801356,16.5860144 15.9934107,16.7446879 L15.9934107,17.6285878 C15.9934107,19.3284616 15.1382528,20.4617826 13.381756,21.0962614 L13.0118766,20.0991155 C14.3524205,19.6004888 14.9302764,18.8751548 14.9302764,17.6285878 L14.9302764,16.8353277 C14.3524205,16.8806477 13.7746722,16.9033614 13.1968163,16.9033614 C12.6189604,16.9033614 12.0180678,16.8806477 11.4633563,16.8353277 L11.4633563,17.6285878 C11.4633563,19.3284616 10.5850541,20.4617826 8.82855733,21.0962614 L8.45867788,20.0991155 C9.79922175,19.6004888 10.3770776,18.8751548 10.3770776,17.6285878 L10.3770776,16.7446879 C8.96720829,16.5860144 7.69598991,16.291381 6.63285562,15.8833941 C4.71445586,15.1581677 3.65132157,14.1155943 3.65132157,12.982381 C3.65132157,11.84906 4.71445586,10.8064865 6.63285562,10.0812602 C7.71913429,9.67327328 8.99035267,9.37863997 10.3770776,9.21996642 L10.3770776,8.3360665 C10.3770776,6.63619272 11.2322355,5.50297941 13.0118766,4.86839288 L13.381756,5.86553877 C12.0412122,6.3642732 11.4633563,7.08949957 11.4633563,8.3360665 L11.4633563,9.12932658 C12.0412122,9.08400666 12.6189604,9.06129288 13.1968163,9.06129288 C13.7746722,9.06129288 14.3755648,9.08400666 14.9302764,9.12932658 L14.9302764,8.3360665 C14.9302764,6.63619272 15.7854342,5.50297941 17.541931,4.86839288 L17.541931,4.86839288 Z M12.982381,1.21707131 C6.48462396,1.21707131 1.21707131,6.48451631 1.21707131,12.982381 C1.21707131,19.480138 6.48462396,24.747583 12.982381,24.747583 C19.4802457,24.747583 24.7476907,19.480138 24.7476907,12.982381 C24.7476907,6.48451631 19.4802457,1.21707131 12.982381,1.21707131 L12.982381,1.21707131 Z M12.982381,0 C20.1524015,0 25.964762,5.81236053 25.964762,12.982381 C25.964762,20.1522938 20.1524015,25.964762 12.982381,25.964762 C5.81246818,25.964762 0,20.1522938 0,12.982381 C0,5.81236053 5.81246818,0 12.982381,0 L12.982381,0 Z" id="logo" fill="#131313" fill-rule="nonzero"></path>
    </g>
</svg>