<?xml version="1.0" encoding="UTF-8"?>
<svg width="26px" height="40px" viewBox="0 0 26 40" version="1.1" xmlns="http://www.w3.org/2000/svg" xmlns:xlink="http://www.w3.org/1999/xlink">
    <title>new</title>
    <defs>
        <polygon id="path-1" points="0 4.30593068e-05 25.9647405 4.30593068e-05 25.9647405 25.964762 0 25.964762"></polygon>
    </defs>
    <g id="new" stroke="none" stroke-width="1" fill="none" fill-rule="evenodd">
        <g id="编组" transform="translate(0.000000, 7.000000)">
            <mask id="mask-2" fill="white">
                <use xlink:href="#path-1"></use>
            </mask>
            <g id="Clip-2"></g>
            <circle id="椭圆形" fill="#FFFFFF" mask="url(#mask-2)" cx="12.9716162" cy="13.0792644" r="12.2960157"></circle>
            <path d="M15.9933892,10.2852967 L15.9933892,15.6795514 C17.2414632,15.5207702 18.397175,15.2488507 19.344695,14.8862913 C20.7777087,14.342237 21.6328666,13.6397244 21.6328666,12.9824241 C21.6328666,12.3251237 20.7777087,11.6225035 19.344695,11.0785568 C18.3740306,10.7158898 17.2414632,10.4439703 15.9933892,10.2852967 L15.9933892,10.2852967 Z M10.3770561,10.2852967 C9.12898211,10.4439703 7.97337796,10.7158898 7.02575027,11.0785568 C5.59273654,11.6225035 4.7375787,12.3251237 4.7375787,12.9824241 C4.7375787,13.6397244 5.59273654,14.342237 7.02575027,14.8862913 C7.99641469,15.2488507 9.12898211,15.5207702 10.3770561,15.6795514 L10.3770561,10.2852967 Z M13.1967948,10.1266232 C12.5957945,10.1266232 12.0180463,10.1492293 11.4633348,10.1946569 L11.4633348,15.7701912 C12.0180463,15.8155112 12.6189389,15.8381173 13.1967948,15.8381173 C13.7976875,15.8381173 14.3755433,15.8155112 14.9302549,15.7701912 L14.9302549,10.1946569 C14.3755433,10.1492293 13.7746507,10.1266232 13.1967948,10.1266232 L13.1967948,10.1266232 Z M17.5419095,4.86843594 L17.9117889,5.86558183 C16.5712451,6.36431626 15.9933892,7.08954263 15.9933892,8.33610956 L15.9933892,9.22000948 C17.4032585,9.37868303 18.6744769,9.67331634 19.7376112,10.0813033 C21.6560109,10.8065296 22.7191452,11.826497 22.7191452,12.9824241 C22.7191452,14.1382435 21.6560109,15.1582108 19.7376112,15.8834372 C18.6513325,16.2914241 17.3801141,16.5860575 15.9933892,16.744731 L15.9933892,17.6286309 C15.9933892,19.3285047 15.1382313,20.4618257 13.3817345,21.0963045 L13.0118551,20.0991586 C14.352399,19.6005319 14.9302549,18.8751979 14.9302549,17.6286309 L14.9302549,16.8353708 C14.352399,16.8806908 13.7746507,16.9034045 13.1967948,16.9034045 C12.6189389,16.9034045 12.0180463,16.8806908 11.4633348,16.8353708 L11.4633348,17.6286309 C11.4633348,19.3285047 10.5850326,20.4618257 8.8285358,21.0963045 L8.45865635,20.0991586 C9.79920022,19.6005319 10.3770561,18.8751979 10.3770561,17.6286309 L10.3770561,16.744731 C8.96718676,16.5860575 7.69596838,16.2914241 6.63283409,15.8834372 C4.71443433,15.1582108 3.65130004,14.1156374 3.65130004,12.9824241 C3.65130004,11.8491031 4.71443433,10.8065296 6.63283409,10.0813033 C7.71911276,9.67331634 8.99033114,9.37868303 10.3770561,9.22000948 L10.3770561,8.33610956 C10.3770561,6.63623578 11.232214,5.50302247 13.0118551,4.86843594 L13.3817345,5.86558183 C12.0411907,6.36431626 11.4633348,7.08954263 11.4633348,8.33610956 L11.4633348,9.12936964 C12.0411907,9.08404972 12.6189389,9.06133594 13.1967948,9.06133594 C13.7746507,9.06133594 14.3755433,9.08404972 14.9302549,9.12936964 L14.9302549,8.33610956 C14.9302549,6.63623578 15.7854127,5.50302247 17.5419095,4.86843594 L17.5419095,4.86843594 Z M12.9823595,1.21711437 C6.48460243,1.21711437 1.21704978,6.48455937 1.21704978,12.9824241 C1.21704978,19.4801811 6.48460243,24.7476261 12.9823595,24.7476261 C19.4802242,24.7476261 24.7476692,19.4801811 24.7476692,12.9824241 C24.7476692,6.48455937 19.4802242,1.21711437 12.9823595,1.21711437 L12.9823595,1.21711437 Z M12.9823595,4.30593068e-05 C20.15238,4.30593068e-05 25.9647405,5.81240359 25.9647405,12.9824241 C25.9647405,20.1523369 20.15238,25.9648051 12.9823595,25.9648051 C5.81244665,25.9648051 -2.15296534e-05,20.1523369 -2.15296534e-05,12.9824241 C-2.15296534e-05,5.81240359 5.81244665,4.30593068e-05 12.9823595,4.30593068e-05 L12.9823595,4.30593068e-05 Z" id="Fill-1" fill="#131313" mask="url(#mask-2)"></path>
        </g>
    </g>
</svg>