<?xml version="1.0" encoding="UTF-8"?>
<svg width="226px" height="226px" viewBox="0 0 226 226" version="1.1" xmlns="http://www.w3.org/2000/svg" xmlns:xlink="http://www.w3.org/1999/xlink">
    <title>eth_logo</title>
    <g id="Page-1" stroke="none" stroke-width="1" fill="none" fill-rule="evenodd">
        <g id="eth_logo" fill-rule="nonzero">
            <circle id="Oval" fill="#FFFFFF" cx="113" cy="114" r="107"></circle>
            <path d="M139.208317,89.523922 L139.208317,136.476078 C150.071684,135.09403 160.131119,132.727214 168.378433,129.57146 C180.851534,124.835954 188.294917,118.72121 188.294917,113 C188.294917,107.278789 180.851534,101.16311 168.378433,96.428541 C159.929668,93.271849 150.071684,90.905033 139.208317,89.523922 L139.208317,89.523922 Z M90.3231677,89.523922 C79.4598011,90.905033 69.401302,93.271849 61.1530515,96.428541 C48.6799503,101.16311 41.2365672,107.278789 41.2365672,113 C41.2365672,118.72121 48.6799503,124.835954 61.1530515,129.57146 C69.601816,132.727214 79.4598011,135.09403 90.3231677,136.476078 L90.3231677,89.523922 Z M114.866468,88.142811 C109.635299,88.142811 104.606517,88.339577 99.7782506,88.734983 L99.7782506,137.265017 C104.606517,137.659486 109.83675,137.856252 114.866468,137.856252 C120.0967,137.856252 125.126418,137.659486 129.954685,137.265017 L129.954685,88.734983 C125.126418,88.339577 119.896186,88.142811 114.866468,88.142811 L114.866468,88.142811 Z M152.6868,42.375 L155.906269,51.054262 C144.238035,55.395298 139.208317,61.707745 139.208317,72.557993 L139.208317,80.251551 C151.479967,81.632662 162.544785,84.197181 171.798416,87.748342 C188.496369,94.060788 197.750001,102.93869 197.750001,113 C197.750001,123.060373 188.496369,131.938276 171.798416,138.250721 C162.343334,141.801882 151.278516,144.366401 139.208317,145.747512 L139.208317,153.441069 C139.208317,168.236948 131.764934,178.101493 116.476202,183.624063 L113.256733,174.944801 C124.924967,170.604701 129.954685,164.291318 129.954685,153.441069 L129.954685,146.536451 C124.924967,146.93092 119.896186,147.128623 114.866468,147.128623 C109.83675,147.128623 104.606517,146.93092 99.7782506,146.536451 L99.7782506,153.441069 C99.7782506,168.236948 92.1334164,178.101493 76.844685,183.624063 L73.6252158,174.944801 C85.2934496,170.604701 90.3231677,164.291318 90.3231677,153.441069 L90.3231677,145.747512 C78.0515176,144.366401 66.9866999,141.801882 57.7330681,138.250721 C41.0351162,131.938276 31.7814843,122.863607 31.7814843,113 C31.7814843,103.135456 41.0351162,94.060788 57.7330681,87.748342 C67.1881511,84.197181 78.2529686,81.632662 90.3231677,80.251551 L90.3231677,72.557993 C90.3231677,57.762114 97.7665507,47.898507 113.256733,42.375 L116.476202,51.054262 C104.807968,55.395298 99.7782506,61.707745 99.7782506,72.557993 L99.7782506,79.462612 C104.807968,79.068143 109.83675,78.870439 114.866468,78.870439 C119.896186,78.870439 125.126418,79.068143 129.954685,79.462612 L129.954685,72.557993 C129.954685,57.762114 137.398068,47.898507 152.6868,42.375 L152.6868,42.375 Z M113,10.5935158 C56.4428442,10.5935158 10.5935157,56.441907 10.5935157,113 C10.5935157,169.557156 56.4428442,215.405547 113,215.405547 C169.558093,215.405547 215.406485,169.557156 215.406485,113 C215.406485,56.441907 169.558093,10.5935158 113,10.5935158 L113,10.5935158 Z M113,0 C175.408607,0 226,50.591393 226,113 C226,175.40767 175.408607,226 113,226 C50.5923301,226 0,175.40767 0,113 C0,50.591393 50.5923301,0 113,0 L113,0 Z" id="logo" fill="#131313"></path>
        </g>
    </g>
</svg>