<?xml version="1.0" encoding="UTF-8"?>
<svg width="226px" height="366px" viewBox="0 0 226 366" version="1.1" xmlns="http://www.w3.org/2000/svg" xmlns:xlink="http://www.w3.org/1999/xlink">
    <title>new_logo</title>
    <defs>
        <polygon id="path-1" points="0 0.000374284744 225.693513 0.000374284744 225.693513 225.693701 0 225.693701"></polygon>
    </defs>
    <g id="new_logo" stroke="none" stroke-width="1" fill="none" fill-rule="evenodd">
        <g id="编组" transform="translate(0.000000, 70.000000)">
            <mask id="mask-2" fill="white">
                <use xlink:href="#path-1"></use>
            </mask>
            <g id="Clip-2"></g>
            <circle id="椭圆形" fill="#FFFFFF" mask="url(#mask-2)" cx="112.753279" cy="113.688991" r="106.880751"></circle>
            <path d="M139.01946,89.4029639 L139.01946,136.291485 C149.868103,134.91131 159.913905,132.547702 168.150041,129.396225 C180.606237,124.667137 188.039532,118.560681 188.039532,112.847225 C188.039532,107.133768 180.606237,101.026377 168.150041,96.2982246 C159.712727,93.1458114 149.868103,90.7822032 139.01946,89.4029639 L139.01946,89.4029639 Z M90.2005647,89.4029639 C79.3519214,90.7822032 69.3070546,93.1458114 61.0699831,96.2982246 C48.6137868,101.026377 41.1804918,107.133768 41.1804918,112.847225 C41.1804918,118.560681 48.6137868,124.667137 61.0699831,129.396225 C69.5072969,132.547702 79.3519214,134.91131 90.2005647,136.291485 L90.2005647,89.4029639 Z M114.710601,88.0237246 C109.486522,88.0237246 104.464556,88.2202241 99.6428331,88.6150945 L99.6428331,137.079355 C104.464556,137.473289 109.6877,137.669789 114.710601,137.669789 C119.933745,137.669789 124.956646,137.473289 129.778369,137.079355 L129.778369,88.6150945 C124.956646,88.2202241 119.733502,88.0237246 114.710601,88.0237246 L114.710601,88.0237246 Z M152.479675,42.3179431 L155.694781,50.9854421 C144.042361,55.3205951 139.01946,61.6244859 139.01946,72.4600293 L139.01946,80.1431594 C151.274478,81.5223986 162.324299,84.083442 171.565389,87.62979 C188.240711,93.9336807 197.481801,102.799551 197.481801,112.847225 C197.481801,122.893963 188.240711,131.759833 171.565389,138.063723 C162.123121,141.610071 151.0733,144.171115 139.01946,145.550354 L139.01946,153.233484 C139.01946,168.00931 131.586165,177.860485 116.318154,183.37557 L113.103048,174.708071 C124.755468,170.373854 129.778369,164.069027 129.778369,153.233484 L129.778369,146.338223 C124.755468,146.732158 119.733502,146.929593 114.710601,146.929593 C109.6877,146.929593 104.464556,146.732158 99.6428331,146.338223 L99.6428331,153.233484 C99.6428331,168.00931 92.00836,177.860485 76.7403496,183.37557 L73.5252437,174.708071 C85.1776635,170.373854 90.2005647,164.069027 90.2005647,153.233484 L90.2005647,145.550354 C77.9455465,144.171115 66.8957251,141.610071 57.6546348,138.063723 C40.9793138,131.759833 31.7382234,122.697463 31.7382234,112.847225 C31.7382234,102.99605 40.9793138,93.9336807 57.6546348,87.62979 C67.0969032,84.083442 78.1467245,81.5223986 90.2005647,80.1431594 L90.2005647,72.4600293 C90.2005647,57.6842033 97.6338597,47.8339646 113.103048,42.3179431 L116.318154,50.9854421 C104.665734,55.3205951 99.6428331,61.6244859 99.6428331,72.4600293 L99.6428331,79.35529 C104.665734,78.9613553 109.6877,78.7639201 114.710601,78.7639201 C119.733502,78.7639201 124.956646,78.9613553 129.778369,79.35529 L129.778369,72.4600293 C129.778369,57.6842033 137.211664,47.8339646 152.479675,42.3179431 L152.479675,42.3179431 Z M112.846663,10.5795326 C56.3661596,10.5795326 10.5789711,56.3657853 10.5789711,112.847225 C10.5789711,169.327728 56.3661596,215.113981 112.846663,215.113981 C169.328102,215.113981 215.114355,169.327728 215.114355,112.847225 C215.114355,56.3657853 169.328102,10.5795326 112.846663,10.5795326 L112.846663,10.5795326 Z M112.846663,0.000374284744 C175.170687,0.000374284744 225.693513,50.5232004 225.693513,112.847225 C225.693513,175.170313 175.170687,225.694075 112.846663,225.694075 C50.5235747,225.694075 -0.000187142372,175.170313 -0.000187142372,112.847225 C-0.000187142372,50.5232004 50.5235747,0.000374284744 112.846663,0.000374284744 L112.846663,0.000374284744 Z" id="Fill-1" fill="#131313" mask="url(#mask-2)"></path>
        </g>
    </g>
</svg>