<?xml version="1.0" encoding="UTF-8"?>
<svg width="106px" height="83px" viewBox="0 0 106 83" version="1.1" xmlns="http://www.w3.org/2000/svg" xmlns:xlink="http://www.w3.org/1999/xlink">
    <title>hardware-newwallet-step-3</title>
    <defs>
        <path d="M29.625,43 L29.625,41.93 L26.595,41.93 L26.595,36 L25.415,36 L25.415,43 L29.625,43 Z M33.885,43.05 C35.975,43.05 37.595,41.5 37.595,39.5 C37.595,37.5 35.975,35.97 33.885,35.97 C31.795,35.97 30.175,37.49 30.175,39.5 C30.175,41.5 31.795,43.05 33.885,43.05 Z M33.895,41.99 C32.525,41.99 31.375,40.89 31.375,39.5 C31.375,38.11 32.515,37.03 33.895,37.03 C35.265,37.03 36.385,38.11 36.385,39.5 C36.385,40.89 35.265,41.99 33.895,41.99 Z M41.675,43.05 C42.635,43.05 43.685,42.68 44.395,42.14 L44.395,39.56 L43.365,39.56 L43.365,41.51 C42.865,41.81 42.275,41.99 41.755,41.99 C40.325,41.99 39.195,40.9 39.195,39.5 C39.195,38.11 40.315,37.02 41.745,37.02 C42.475,37.02 43.225,37.32 43.765,37.82 L44.435,36.95 C43.745,36.35 42.745,35.97 41.745,35.97 C39.625,35.97 37.995,37.5 37.995,39.5 C37.995,41.5 39.605,43.05 41.675,43.05 Z M47.245,43 L47.245,36 L46.065,36 L46.065,43 L47.245,43 Z M50.265,43 L50.265,37.98 L53.995,43 L55.155,43 L55.155,36 L53.995,36 L53.995,41.03 L50.245,36 L49.085,36 L49.085,43 L50.265,43 Z M62.655,43 L64.335,37.54 L65.995,43 L67.205,43 L69.545,36 L68.325,36 L66.635,41.69 L64.935,36 L63.775,36 L62.085,41.69 L60.385,36 L59.115,36 L61.435,43 L62.655,43 Z M71.545,43 L71.545,36 L70.365,36 L70.365,43 L71.545,43 Z M75.945,43 L75.945,37.06 L78.165,37.06 L78.165,36 L72.555,36 L72.555,37.06 L74.765,37.06 L74.765,43 L75.945,43 Z M80.355,43 L80.355,40.1 L84.065,40.1 L84.065,43 L85.245,43 L85.245,36 L84.065,36 L84.065,39.04 L80.355,39.04 L80.355,36 L79.175,36 L79.175,43 L80.355,43 Z" id="path-1"></path>
        <path d="M32.596,56 L32.596,50.98 L36.326,56 L37.486,56 L37.486,49 L36.326,49 L36.326,54.03 L32.576,49 L31.416,49 L31.416,56 L32.596,56 Z M44.456,56 L44.456,54.94 L40.516,54.94 L40.516,53.01 L43.936,53.01 L43.936,51.96 L40.516,51.96 L40.516,50.06 L44.336,50.06 L44.336,49 L39.336,49 L39.336,56 L44.456,56 Z M48.546,56 L50.226,50.54 L51.886,56 L53.096,56 L55.436,49 L54.216,49 L52.526,54.69 L50.826,49 L49.666,49 L47.976,54.69 L46.276,49 L45.006,49 L47.326,56 L48.546,56 Z M57.366,56 L57.366,50.77 L59.576,55.27 L60.346,55.27 L62.556,50.77 L62.566,56 L63.656,56 L63.656,49 L62.266,49 L59.966,53.65 L57.656,49 L56.256,49 L56.256,56 L57.366,56 Z M65.826,56 L66.496,54.42 L70.026,54.42 L70.696,56 L71.956,56 L68.896,49 L67.686,49 L64.596,56 L65.826,56 Z M69.576,53.37 L66.936,53.37 L68.256,50.26 L69.576,53.37 Z M75.026,56.04 C76.566,56.04 77.6660198,55.27 77.6660198,54.02 C77.6711515,52.7218182 76.6705087,52.3100092 75.6989774,52.0066848 L75.358978,51.902867 C74.5763306,51.665225 73.896,51.4390909 73.896,50.79 C73.896,50.32 74.346,50.06 75.036,50.06 C75.566,50.06 76.326,50.25 77.086,50.71 L77.576,49.67 C76.926,49.24 76.036,48.95 75.126,48.95 C73.606,48.95 72.576,49.7 72.576,50.9 C72.576,53.39 76.356,52.52 76.356,54.08 C76.356,54.62 75.866,54.93 75.046,54.93 C74.296,54.93 73.396,54.57 72.676,53.91 L72.166,54.93 C72.886,55.59 73.926,56.04 75.026,56.04 Z M80.226,56 L80.226,54.22 L81.416,52.91 L83.716,56 L85.136,56 L82.246,51.99 L84.956,49 L83.566,49 L80.226,52.62 L80.226,49 L79.046,49 L79.046,56 L80.226,56 Z" id="path-2"></path>
    </defs>
    <g id="hardware-newwallet-step-3" stroke="none" stroke-width="1" fill="none" fill-rule="evenodd">
        <path d="M5,76 L101,76 L101,9.94366197 C101,7.76563761 99.209139,6 97,6 L9,6 C6.790861,6 5,7.76563761 5,9.94366197 L5,76 L5,76 Z" id="Rectangle3" stroke="#3098DC" fill="#FEFEFE" fill-rule="nonzero"></path>
        <polygon id="Rectangle2" stroke="#3098DC" points="10 71 96 71 96 10 10 10"></polygon>
        <rect id="Rectangle1" stroke="#3098DC" fill="#FFFFFF" fill-rule="nonzero" x="14.5" y="14.5" width="77" height="53" rx="2"></rect>
        <path d="M104.73,83 L1.27,83 C0.568,83 0,82.45 0,81.771 L0,77.23 C0,76.549 0.568,76 1.27,76 L104.73,76 C105.43,76 106,76.55 106,77.229 L106,81.771 C106,82.451 105.43,83 104.73,83 Z" id="Path1" stroke="#3098DC" fill="#D9F0FF"></path>
        <line x1="14.5" y1="21.5" x2="91.5" y2="21.5" id="Path" stroke="#3098DC" fill="#FFFFFF" fill-rule="nonzero" stroke-linejoin="round"></line>
        <path d="M18,18.75 C18.5522847,18.75 19,18.3022847 19,17.75 C19,17.1977153 18.5522847,16.75 18,16.75 C17.4477153,16.75 17,17.1977153 17,17.75 C17,18.3022847 17.4477153,18.75 18,18.75 Z" id="Path" stroke="#3098DC" fill="#D9F0FF" fill-rule="nonzero"></path>
        <path d="M22.769,18.75 C23.3212848,18.75 23.769,18.3022847 23.769,17.75 C23.769,17.1977153 23.3212848,16.75 22.769,16.75 C22.2167153,16.75 21.769,17.1977153 21.769,17.75 C21.769,18.3022847 22.2167153,18.75 22.769,18.75 Z" id="Path" stroke="#3098DC" fill="#D9F0FF" fill-rule="nonzero"></path>
        <path d="M27.538,18.75 C28.0902847,18.75 28.538,18.3022847 28.538,17.75 C28.538,17.1977153 28.0902847,16.75 27.538,16.75 C26.9857152,16.75 26.538,17.1977153 26.538,17.75 C26.538,18.3022847 26.9857152,18.75 27.538,18.75 Z" id="Path" stroke="#3098DC" fill="#D9F0FF" fill-rule="nonzero"></path>
        <circle id="Oval" fill="#FFFFFF" fill-rule="nonzero" cx="90.9694328" cy="14.0853617" r="13.241863"></circle>
        <path d="M94.2236499,11.0764734 L94.2236499,16.8856707 C95.5677296,16.7146756 96.8123423,16.4218392 97.8327485,16.0313906 C99.375994,15.445486 100.296933,14.688934 100.296933,13.9810721 C100.296933,13.2732102 99.375994,12.5165422 97.8327485,11.9307535 C96.7874175,11.540189 95.5677296,11.2473526 94.2236499,11.0764734 L94.2236499,11.0764734 Z M88.1752912,11.0764734 C86.8312115,11.2473526 85.5867147,11.540189 84.5661926,11.9307535 C83.022947,12.5165422 82.1020078,13.2732102 82.1020078,13.9810721 C82.1020078,14.688934 83.022947,15.445486 84.5661926,16.0313906 C85.6115235,16.4218392 86.8312115,16.7146756 88.1752912,16.8856707 L88.1752912,11.0764734 Z M91.2119329,10.9055942 C90.5647018,10.9055942 89.9425114,10.9299393 89.3451298,10.9788613 L89.3451298,16.9832829 C89.9425114,17.0320889 90.5896265,17.056434 91.2119329,17.056434 C91.859048,17.056434 92.4813544,17.0320889 93.078736,16.9832829 L93.078736,10.9788613 C92.4813544,10.9299393 91.8342392,10.9055942 91.2119329,10.9055942 L91.2119329,10.9055942 Z M95.8912871,5.24293101 L96.2896188,6.31678044 C94.8459562,6.85387904 94.2236499,7.63489206 94.2236499,8.97734876 L94.2236499,9.92924098 C95.7419707,10.1001202 97.1109751,10.4174176 98.255889,10.8567881 C100.321858,11.6378012 101.466772,12.7362275 101.466772,13.9810721 C101.466772,15.2258007 100.321858,16.3242271 98.255889,17.1052401 C97.0860504,17.5446106 95.717046,17.861908 94.2236499,18.0327872 L94.2236499,18.9846795 C94.2236499,20.8153128 93.3027107,22.0358122 91.4110987,22.7190972 L91.012767,21.6452478 C92.4564297,21.1082651 93.078736,20.3271361 93.078736,18.9846795 L93.078736,18.1303994 C92.4564297,18.1792054 91.8342392,18.2036664 91.2119329,18.2036664 C90.5896265,18.2036664 89.9425114,18.1792054 89.3451298,18.1303994 L89.3451298,18.9846795 C89.3451298,20.8153128 88.3992658,22.0358122 86.5076539,22.7190972 L86.1093222,21.6452478 C87.5529849,21.1082651 88.1752912,20.3271361 88.1752912,18.9846795 L88.1752912,18.0327872 C86.6569704,17.861908 85.287966,17.5446106 84.1430521,17.1052401 C82.0770831,16.3242271 80.9321693,15.2014556 80.9321693,13.9810721 C80.9321693,12.7605726 82.0770831,11.6378012 84.1430521,10.8567881 C85.3128907,10.4174176 86.6818951,10.1001202 88.1752912,9.92924098 L88.1752912,8.97734876 C88.1752912,7.14671545 89.0962304,5.92633189 91.012767,5.24293101 L91.4110987,6.31678044 C89.9674361,6.85387904 89.3451298,7.63489206 89.3451298,8.97734876 L89.3451298,9.83162885 C89.9674361,9.78282278 90.5896265,9.75836178 91.2119329,9.75836178 C91.8342392,9.75836178 92.4813544,9.78282278 93.078736,9.83162885 L93.078736,8.97734876 C93.078736,7.14671545 93.9996752,5.92633189 95.8912871,5.24293101 L95.8912871,5.24293101 Z M90.9810025,1.31073855 C83.983418,1.31073855 78.310669,6.98337163 78.310669,13.9810721 C78.310669,20.9786566 83.983418,26.6512897 90.9810025,26.6512897 C97.978703,26.6512897 103.651336,20.9786566 103.651336,13.9810721 C103.651336,6.98337163 97.978703,1.31073855 90.9810025,1.31073855 L90.9810025,1.31073855 Z M90.9810025,4.63715612e-05 C98.702563,4.63715612e-05 104.962028,6.25951156 104.962028,13.9810721 C104.962028,21.7025167 98.702563,27.9620978 90.9810025,27.9620978 C83.2595579,27.9620978 76.9999768,21.7025167 76.9999768,13.9810721 C76.9999768,6.25951156 83.2595579,4.63715612e-05 90.9810025,4.63715612e-05 L90.9810025,4.63715612e-05 Z" id="logo" fill="#3098DC" fill-rule="nonzero"></path>
        <g id="LOGINWITH" fill-rule="nonzero">
            <use fill="#000000" xlink:href="#path-1"></use>
            <use fill="#3098DC" xlink:href="#path-1"></use>
        </g>
        <g id="NEWMASK" fill-rule="nonzero">
            <use fill="#000000" xlink:href="#path-2"></use>
            <use fill="#3098DC" xlink:href="#path-2"></use>
        </g>
    </g>
</svg>