<?xml version="1.0" encoding="UTF-8"?>
<svg width="223px" height="91px" viewBox="0 0 223 91" version="1.1" xmlns="http://www.w3.org/2000/svg" xmlns:xlink="http://www.w3.org/1999/xlink">
    <title>hardware-newwallet-step-1</title>
    <g id="hardware-newwallet-step-1" stroke="none" stroke-width="1" fill="none" fill-rule="evenodd">
        <path d="M12,28.8181091 L12,79 C12,81.209139 13.790861,83 16,83 L78.643,83 C80.852139,83 82.643,81.209139 82.643,79 L82.643,62.8825687 L82.643,62.8825687 L97.5568431,62.592034 L97.6830142,43.9682628 L82.643,43.9302978 L82.643,31.453 C58.3086509,31.453 35.9896509,31.453 15.686,31.453 C14.0379874,31.3915313 12.8093208,30.5132343 12,28.8181091 Z" id="Rectangle4" fill="#FFFFFF" fill-rule="nonzero"></path>
        <path d="M126.9635,84.695 L216.9635,84.695 L216.9635,18.638662 C216.9635,16.4606376 215.172639,14.695 212.9635,14.695 L130.9635,14.695 C128.754361,14.695 126.9635,16.4606376 126.9635,18.638662 L126.9635,84.695 L126.9635,84.695 Z" id="Rectangle2" stroke="#3098DC" fill="#FFFFFF" fill-rule="nonzero"></path>
        <polygon id="Rectangle1" stroke="#3098DC" points="130.772 78.695 213.155 78.695 213.155 19.903 130.772 19.903"></polygon>
        <rect id="Rectangle3" stroke="#3098DC" fill="#D9EFFF" fill-rule="nonzero" x="121" y="84" width="102" height="7" rx="1"></rect>
        <path d="M175.299302,47.0544151 L175.299302,53.9009691 C176.883396,53.6994391 178.35026,53.3543105 179.552882,52.894139 C181.371707,52.2036085 182.4571,51.3119579 182.4571,50.4776921 C182.4571,49.6434263 181.371707,48.7516391 179.552882,48.0612452 C178.320885,47.6009371 176.883396,47.2558084 175.299302,47.0544151 L175.299302,47.0544151 Z M168.170879,47.0544151 C166.586785,47.2558084 165.120057,47.6009371 163.917298,48.0612452 C162.098473,48.7516391 161.013081,49.6434263 161.013081,50.4776921 C161.013081,51.3119579 162.098473,52.2036085 163.917298,52.894139 C165.149296,53.3543105 166.586785,53.6994391 168.170879,53.9009691 L168.170879,47.0544151 Z M171.749778,46.8530217 C170.98697,46.8530217 170.253674,46.8817141 169.549617,46.9393722 L169.549617,54.016012 C170.253674,54.0735334 171.016346,54.1022258 171.749778,54.1022258 C172.512449,54.1022258 173.245882,54.0735334 173.949939,54.016012 L173.949939,46.9393722 C173.245882,46.8817141 172.48321,46.8530217 171.749778,46.8530217 L171.749778,46.8530217 Z M177.264731,40.1791687 L177.734194,41.4447769 C176.032734,42.077786 175.299302,42.9982657 175.299302,44.5804468 L175.299302,45.7023197 C177.088751,45.9037131 178.702221,46.2776707 180.051583,46.7955003 C182.486475,47.7159799 183.835838,49.0105539 183.835838,50.4776921 C183.835838,51.9446937 182.486475,53.2392676 180.051583,54.1597472 C178.672845,54.6775768 177.059376,55.0515345 175.299302,55.2529278 L175.299302,56.3748008 C175.299302,58.5323329 174.213909,59.9707787 171.984509,60.7760788 L171.515047,59.5104706 C173.216506,58.8775981 173.949939,57.9569819 173.949939,56.3748008 L173.949939,55.3679707 C173.216506,55.4254921 172.48321,55.4543212 171.749778,55.4543212 C171.016346,55.4543212 170.253674,55.4254921 169.549617,55.3679707 L169.549617,56.3748008 C169.549617,58.5323329 168.434849,59.9707787 166.205449,60.7760788 L165.735987,59.5104706 C167.437446,58.8775981 168.170879,57.9569819 168.170879,56.3748008 L168.170879,55.2529278 C166.381429,55.0515345 164.76796,54.6775768 163.418597,54.1597472 C160.983705,53.2392676 159.634342,51.9160013 159.634342,50.4776921 C159.634342,49.0392463 160.983705,47.7159799 163.418597,46.7955003 C164.797335,46.2776707 166.410805,45.9037131 168.170879,45.7023197 L168.170879,44.5804468 C168.170879,42.4229146 169.256272,40.9846054 171.515047,40.1791687 L171.984509,41.4447769 C170.28305,42.077786 169.549617,42.9982657 169.549617,44.5804468 L169.549617,45.5872769 C170.28305,45.5297554 171.016346,45.5009264 171.749778,45.5009264 C172.48321,45.5009264 173.245882,45.5297554 173.949939,45.5872769 L173.949939,44.5804468 C173.949939,42.4229146 175.035331,40.9846054 177.264731,40.1791687 L177.264731,40.1791687 Z M171.47761,35.544799 C163.230457,35.544799 156.544717,42.2304023 156.544717,50.4776921 C156.544717,58.7248453 163.230457,65.4104485 171.47761,65.4104485 C179.7249,65.4104485 186.410503,58.7248453 186.410503,50.4776921 C186.410503,42.2304023 179.7249,35.544799 171.47761,35.544799 L171.47761,35.544799 Z M171.47761,34.0000547 C180.578021,34.0000547 187.955247,41.3772815 187.955247,50.4776921 C187.955247,59.5779661 180.578021,66.9553295 171.47761,66.9553295 C162.377336,66.9553295 154.999973,59.5779661 154.999973,50.4776921 C154.999973,41.3772815 162.377336,34.0000547 171.47761,34.0000547 L171.47761,34.0000547 Z" id="Fill-1" fill="#3098DC" fill-rule="nonzero"></path>
        <path d="M16,24 L77.642,24 C81.5661095,24 82.642,26.2385763 82.642,29 L82.642,33.6362182 L80.2345336,31.6427653 L16,31.5277695 C13.790861,31.5277695 12,30.209139 12,28 C12,25.790861 13.790861,24 16,24 Z" id="Path" fill="#D9F0FF" fill-rule="nonzero"></path>
        <path d="M78.957,83 L15.686,83 C13.65,83 12,81.332 12,79.274 L12,27.726 C12,25.67 13.65,24 15.686,24 L78.957,24 C80.992,24 82.643,25.669 82.643,27.726 L82.643,79.274 C82.643,81.332 80.993,83 78.957,83 Z" id="Rectangle" stroke="#3098DC"></path>
        <path d="M82.643,37.0444274 L82.643,35.139 C82.643,33.1032784 80.9927216,31.453 78.957,31.453 L78.957,31.453 L78.957,31.453 L15.686,31.453 C13.65,31.453 12,29.784 12,27.726 C12,25.67 13.65,24 15.686,24 L78.957,24 C80.992,24 82.643,25.669 82.643,27.726" id="path" stroke="#3098DC"></path>
        <polygon id="path" stroke="#3098DC" points="82.643 47.599 97.532 47.599 97.532 43.874 82.642 43.874"></polygon>
        <polygon id="path" stroke="#3098DC" points="82.643 62.653 97.532 62.653 97.532 47.6 82.642 47.6"></polygon>
        <path d="M50.4539106,53.8676501 L50.4539106,60.0917901 C51.893996,59.908581 53.2275096,59.5948277 54.3208019,59.17649 C55.9742793,58.548735 56.9609999,57.7381435 56.9609999,56.9797201 C56.9609999,56.2212966 55.9742793,55.410581 54.3208019,54.7829502 C53.2008045,54.3644882 51.893996,54.0507349 50.4539106,53.8676501 L50.4539106,53.8676501 Z M43.9735263,53.8676501 C42.5334409,54.0507349 41.2000515,54.3644882 40.1066349,54.7829502 C38.4531575,55.410581 37.466437,56.2212966 37.466437,56.9797201 C37.466437,57.7381435 38.4531575,58.548735 40.1066349,59.17649 C41.2266323,59.5948277 42.5334409,59.908581 43.9735263,60.0917901 L43.9735263,53.8676501 Z M47.227071,53.6845652 C46.5336091,53.6845652 45.8669765,53.7106492 45.2269247,53.7630656 L45.2269247,60.1963745 C45.8669765,60.2486667 46.5603141,60.2747507 47.227071,60.2747507 C47.9204086,60.2747507 48.5871654,60.2486667 49.2272172,60.1963745 L49.2272172,53.7630656 C48.5871654,53.7106492 47.8938278,53.6845652 47.227071,53.6845652 L47.227071,53.6845652 Z M52.2406648,47.6174261 L52.6674488,48.767979 C51.1206674,49.3434418 50.4539106,50.1802415 50.4539106,51.618588 L50.4539106,52.6384725 C52.0806829,52.8215573 53.5474733,53.1615188 54.7741667,53.632273 C56.9877049,54.4690727 58.2143983,55.645958 58.2143983,56.9797201 C58.2143983,58.3133579 56.9877049,59.4902433 54.7741667,60.3270429 C53.5207683,60.7977971 52.0539778,61.1377586 50.4539106,61.3208435 L50.4539106,62.340728 C50.4539106,64.3021208 49.46719,65.6097988 47.4404629,66.3418899 L47.013679,65.1913369 C48.5604604,64.6159983 49.2272172,63.7790744 49.2272172,62.340728 L49.2272172,61.4254279 C48.5604604,61.4777201 47.8938278,61.5039283 47.227071,61.5039283 C46.5603141,61.5039283 45.8669765,61.4777201 45.2269247,61.4254279 L45.2269247,62.340728 C45.2269247,64.3021208 44.2134991,65.6097988 42.1867721,66.3418899 L41.7599881,65.1913369 C43.3067695,64.6159983 43.9735263,63.7790744 43.9735263,62.340728 L43.9735263,61.3208435 C42.346754,61.1377586 40.8799635,60.7977971 39.6532701,60.3270429 C37.4397319,59.4902433 36.2130385,58.2872739 36.2130385,56.9797201 C36.2130385,55.6720421 37.4397319,54.4690727 39.6532701,53.632273 C40.9066686,53.1615188 42.373459,52.8215573 43.9735263,52.6384725 L43.9735263,51.618588 C43.9735263,49.6571951 44.9602469,48.3496413 47.013679,47.6174261 L47.4404629,48.767979 C45.8936816,49.3434418 45.2269247,50.1802415 45.2269247,51.618588 L45.2269247,52.533888 C45.8936816,52.4815958 46.5603141,52.4553876 47.227071,52.4553876 C47.8938278,52.4553876 48.5871654,52.4815958 49.2272172,52.533888 L49.2272172,51.618588 C49.2272172,49.6571951 50.2139377,48.3496413 52.2406648,47.6174261 L52.2406648,47.6174261 Z M46.9796455,43.4043627 C39.4822336,43.4043627 33.4042882,49.4821839 33.4042882,56.9797201 C33.4042882,64.4771321 39.4822336,70.5549532 46.9796455,70.5549532 C54.4771817,70.5549532 60.5550029,64.4771321 60.5550029,56.9797201 C60.5550029,49.4821839 54.4771817,43.4043627 46.9796455,43.4043627 L46.9796455,43.4043627 Z M46.9796455,42.0000497 C55.2527461,42.0000497 61.9593159,48.7066195 61.9593159,56.9797201 C61.9593159,65.2526964 55.2527461,71.9593905 46.9796455,71.9593905 C38.7066692,71.9593905 31.9999752,65.2526964 31.9999752,56.9797201 C31.9999752,48.7066195 38.7066692,42.0000497 46.9796455,42.0000497 L46.9796455,42.0000497 Z" id="Fill-1" fill="#3098DC" fill-rule="nonzero"></path>
        <polyline id="shape-path" stroke="#3098DC" points="110.333 46 116.425 51.29 110.333 56.58"></polyline>
        <line x1="103" y1="51.21" x2="116.5" y2="51.21" id="shape-path" stroke="#3098DC"></line>
    </g>
</svg>