<?xml version="1.0" encoding="UTF-8"?>
<svg width="20px" height="24px" viewBox="0 0 20 24" version="1.1" xmlns="http://www.w3.org/2000/svg" xmlns:xlink="http://www.w3.org/1999/xlink">
    <title>new-shield</title>
    <g id="new-shield" stroke="none" stroke-width="1" fill="none" fill-rule="evenodd">
        <path d="M10,0.872 L20,3.572 L20,9.715 C20,16.045 15.8,21.405 10,23.235 C4.2,21.405 0,16.045 0,9.715 L0,3.572 L10,0.872 Z M12.7418013,7 C11.6363821,7.39104737 11.0982042,8.08936046 11.0982042,9.13686326 L11.0982042,9.13686326 L11.0982042,9.62568906 C10.7491066,9.59776184 10.3709458,9.58376507 10.0072827,9.58376507 C9.64361969,9.58376507 9.28002439,9.59776184 8.91636134,9.62568906 L8.91636134,9.62568906 L8.91636134,9.13686326 C8.91636134,8.36869896 9.28002439,7.92179716 10.1236712,7.6144651 L10.1236712,7.6144651 L9.89089431,7 C8.77090967,7.39104737 8.23273171,8.08936046 8.23273171,9.13686326 L8.23273171,9.13686326 L8.23273171,9.68154349 C7.36002168,9.77932192 6.56000361,9.960882 5.87637398,10.2122933 C4.66906414,10.6591951 4,11.3016537 4,12.0000332 C4,12.6983463 4.66906414,13.3408049 5.87637398,13.7877067 C6.54543812,14.039118 7.34545619,14.2206781 8.23273171,14.3184565 L8.23273171,14.3184565 L8.23273171,14.8631367 C8.23273171,15.631301 7.86906866,16.0782692 7.02542186,16.3855349 L7.02542186,16.3855349 L7.25819873,17 C8.36361789,16.609019 8.91636134,15.9106395 8.91636134,14.8631367 L8.91636134,14.8631367 L8.91636134,14.3743109 C9.2654589,14.4022382 9.64361969,14.4162349 10.0072827,14.4162349 C10.3709458,14.4162349 10.7345411,14.4022382 11.0982042,14.3743109 L11.0982042,14.3743109 L11.0982042,14.8631367 C11.0982042,15.631301 10.7345411,16.0782692 9.89089431,16.3855349 L9.89089431,16.3855349 L10.1236712,17 C11.2290903,16.609019 11.7672683,15.9106395 11.7672683,14.8631367 L11.7672683,14.8631367 L11.7672683,14.3184565 C12.6399783,14.2206781 13.4399964,14.039118 14.123626,13.7877067 C15.3309359,13.3408049 16,12.7122767 16,12.0000332 C16,11.2877233 15.3309359,10.6591951 14.123626,10.2122933 C13.4545619,9.960882 12.6545438,9.77932192 11.7672683,9.68154349 L11.7672683,9.68154349 L11.7672683,9.13686326 C11.7672683,8.36869896 12.1309313,7.92179716 12.9745781,7.6144651 L12.9745781,7.6144651 L12.7418013,7 Z M10.0072827,10.2402205 C10.3709458,10.2402205 10.7491066,10.2541509 11.0982042,10.2821445 L11.0982042,10.2821445 L11.0982042,13.7179218 C10.7491066,13.7458491 10.3854435,13.7597795 10.0072827,13.7597795 C9.64361969,13.7597795 9.2654589,13.7458491 8.91636134,13.7179218 L8.91636134,13.7179218 L8.91636134,10.2821445 C9.2654589,10.2541509 9.6290542,10.2402205 10.0072827,10.2402205 Z M11.7672683,10.3379989 C12.5527209,10.4357774 13.2654815,10.6033407 13.8763514,10.8268247 C14.7781924,11.1620177 15.3163704,11.594989 15.3163704,12.0000332 C15.3163704,12.4050773 14.7781924,12.8379823 13.8763514,13.1732416 C13.280047,13.3966593 12.5527209,13.5642226 11.7672683,13.6620674 L11.7672683,13.6620674 L11.7672683,10.3379989 Z M8.23273171,10.3379989 L8.23273171,13.6620674 C7.44727913,13.5642226 6.73451852,13.3966593 6.1236486,13.1732416 C5.22180759,12.8379823 4.68362963,12.4050773 4.68362963,12.0000332 C4.68362963,11.594989 5.22180759,11.1620177 6.1236486,10.8268247 C6.72002078,10.6033407 7.44727913,10.4357774 8.23273171,10.3379989 L8.23273171,10.3379989 Z" fill="#FFFFFF" fill-rule="nonzero"></path>
    </g>
</svg>