<?xml version="1.0" encoding="UTF-8"?>
<svg width="75px" height="22px" viewBox="0 0 75 22" version="1.1" xmlns="http://www.w3.org/2000/svg" xmlns:xlink="http://www.w3.org/1999/xlink">
    <title>nm-secure</title>
    <defs>
        <path d="M60.4914,4.5823 C61.2174,4.5823 61.7409,4.7953 62.0619,5.2213 C62.2629,5.4913 62.3604,5.7823 62.3544,6.0943 L62.3544,6.0943 L61.5894,6.0943 L61.5688688,5.96014375 C61.5390562,5.82908125 61.4814,5.7073 61.3959,5.5948 C61.2099,5.3818 60.8874,5.2753 60.4284,5.2753 C60.1224,5.2753 59.89065,5.3338 59.73315,5.4508 C59.57565,5.5678 59.4969,5.7223 59.4969,5.9143 C59.4969,6.1243 59.6004,6.2923 59.8074,6.4183 C59.9274,6.4933 60.1044,6.5593 60.3384,6.6163 L60.3384,6.6163 L60.8739,6.7468 L61.08315,6.79946406 C61.5504,6.92185469 61.87065,7.0408 62.0439,7.1563 C62.3589,7.3633 62.5164,7.6888 62.5164,8.1328 C62.5164,8.5618 62.35365,8.9323 62.02815,9.2443 C61.70265,9.5563 61.2069,9.7123 60.5409,9.7123 C59.8239,9.7123 59.31615,9.54955 59.01765,9.22405 C58.71915,8.89855 58.5594,8.4958 58.5384,8.0158 L58.5384,8.0158 L59.3169,8.0158 L59.33652,8.17024 C59.36964,8.36608 59.4306,8.5216 59.5194,8.6368 C59.7234,8.8978 60.0774,9.0283 60.5814,9.0283 C60.8814,9.0283 61.1454,8.96305 61.3734,8.83255 C61.6014,8.70205 61.7154,8.5003 61.7154,8.2273 C61.7154,8.0203 61.6239,7.8628 61.4409,7.7548 C61.3239,7.6888 61.0929,7.6123 60.7479,7.5253 L60.7479,7.5253 L60.1044,7.3633 L59.9079,7.3113 C59.5954,7.22296667 59.3579,7.1263 59.1954,7.0213 C58.8474,6.8023 58.6734,6.4993 58.6734,6.1123 C58.6734,5.6563 58.83765,5.2873 59.16615,5.0053 C59.49465,4.7233 59.9364,4.5823 60.4914,4.5823 Z M36.2589,4.6003 C36.6009,4.6003 36.9324,4.68055 37.2534,4.84105 C37.5744,5.00155 37.8189,5.2093 37.9869,5.4643 C38.1489,5.7073 38.2569,5.9908 38.3109,6.3148 C38.3520429,6.50508571 38.3755531,6.79235102 38.3814306,7.17659592 L38.3829,7.3768 L34.8504,7.3768 L34.8629816,7.58044796 C34.900451,7.97589694 35.0117571,8.30026429 35.1969,8.55355 C35.4129,8.84905 35.7474,8.9968 36.2004,8.9968 C36.6234,8.9968 36.9609,8.8573 37.2129,8.5783 C37.3209,8.4568 37.405275,8.32095625 37.466025,8.17076875 L37.5189,8.0158 L38.3154,8.0158 L38.2905094,8.15234687 C38.2564781,8.29269062 38.195025,8.444425 38.10615,8.60755 C37.98765,8.82505 37.8549,9.0028 37.7079,9.1408 C37.4619,9.3808 37.1574,9.5428 36.7944,9.6268 C36.5994,9.6748 36.3789,9.6988 36.1329,9.6988 C35.5329,9.6988 35.0244,9.48055 34.6074,9.04405 C34.1904,8.60755 33.9819,7.9963 33.9819,7.2103 C33.9819,6.4363 34.1919,5.8078 34.6119,5.3248 C35.0319,4.8418 35.5809,4.6003 36.2589,4.6003 Z M55.5999,4.5913 C56.1669,4.5913 56.6274,4.6993 56.9814,4.9153 C57.2934,5.1073 57.4667333,5.39411481 57.5014,5.77574444 L57.5079,5.9233 L57.5079,8.6998 L57.51365,8.7783 C57.5213167,8.82696667 57.53665,8.8683 57.55965,8.9023 C57.59415,8.9533 57.6669,8.9788 57.7779,8.9788 C57.8139,8.9788 57.8544,8.97655 57.8994,8.97205 L57.96915,8.9636125 L57.96915,8.9636125 L58.0434,8.9518 L58.0434,9.5503 L57.954525,9.57476875 C57.871275,9.59670625 57.8049,9.61105 57.7554,9.6178 C57.6894,9.6268 57.5994,9.6313 57.4854,9.6313 C57.2064,9.6313 57.0039,9.5323 56.8779,9.3343 C56.8119,9.2293 56.7654,9.0808 56.7384,8.8888 C56.5734,9.1048 56.3364,9.2923 56.0274,9.4513 C55.7184,9.6103 55.3779,9.6898 55.0059,9.6898 C54.5589,9.6898 54.19365,9.55405 53.91015,9.28255 C53.62665,9.01105 53.4849,8.6713 53.4849,8.2633 C53.4849,7.8163 53.6244,7.4698 53.9034,7.2238 C54.1425429,7.01294286 54.4456041,6.87151429 54.8125837,6.79951429 L55.0014,6.7693 L56.2929,6.6073 L56.39712,6.58642 C56.52624,6.54994 56.616,6.4789 56.6664,6.3733 C56.7024,6.3013 56.7204,6.1978 56.7204,6.0628 C56.7204,5.7868 56.62215,5.58655 56.42565,5.46205 C56.22915,5.33755 55.9479,5.2753 55.5819,5.2753 C55.1589,5.2753 54.8589,5.3893 54.6819,5.6173 C54.6027,5.7181 54.54558,5.85826 54.51054,6.03778 L54.4884,6.1798 L53.7324,6.1798 L53.7422325,6.0070225 C53.7877275,5.5049575 53.9772,5.1493 54.31065,4.94005 C54.68115,4.70755 55.1109,4.5913 55.5999,4.5913 Z M28.7619,2.9173 L32.1009,8.2723 L32.1009,2.9173 L32.9514,2.9173 L32.9514,9.5278 L31.9479,9.5278 L28.5594,4.1773 L28.5594,9.5278 L27.7044,9.5278 L27.7044,2.9173 L28.7619,2.9173 Z M39.7509,4.7083 L40.6779,8.5063 L41.6184,4.7083 L42.5274,4.7083 L43.4724,8.4838 L44.4579,4.7083 L45.2679,4.7083 L43.8684,9.5278 L43.0269,9.5278 L42.0459,5.7973 L41.0964,9.5278 L40.2549,9.5278 L38.8644,4.7083 L39.7509,4.7083 Z M47.4009,2.9173 L49.2999,8.5063 L51.1854,2.9173 L52.4544,2.9173 L52.4544,9.5278 L51.6039,9.5278 L51.60415,5.551425 C51.6049833,5.41434167 51.6079,5.2158 51.6129,4.9558 C51.6189,4.6438 51.6219,4.3093 51.6219,3.9523 L51.6219,3.9523 L49.7364,9.5278 L48.8499,9.5278 L46.9509,3.9523 L46.95135,4.26217 C46.95255,4.41889 46.95615,4.62985 46.96215,4.89505 C46.96965,5.22655 46.9734,5.4703 46.9734,5.6263 L46.9734,5.6263 L46.9734,9.5278 L46.1184,9.5278 L46.1184,2.9173 L47.4009,2.9173 Z M64.2039,2.9173 L64.2039,6.7558 L66.2829,4.7083 L67.3179,4.7083 L65.4729,6.5128 L67.4214,9.5278 L66.3864,9.5278 L64.8834,7.0978 L64.2039,7.7188 L64.2039,9.5278 L63.4254,9.5278 L63.4254,2.9173 L64.2039,2.9173 Z M56.6979,7.0753 L56.5894,7.1348 C56.5107333,7.17213333 56.4194,7.2048 56.3154,7.2328 C56.2114,7.2608 56.1087333,7.28346667 56.0074,7.3008 L55.8564,7.3228 L55.3659,7.3858 L55.19832,7.4119 C54.98664,7.4503 54.822,7.5031 54.7044,7.5703 C54.4554,7.7113 54.3309,7.9363 54.3309,8.2453 C54.3309,8.4793 54.4164,8.6638 54.5874,8.7988 C54.7584,8.9338 54.9609,9.0013 55.1949,9.0013 C55.4799,9.0013 55.7559,8.9353 56.0229,8.8033 C56.4279,8.6062 56.65065,8.296105 56.69115,7.873015 L56.6979,7.7278 L56.6979,7.0753 Z M36.2094,5.3068 C35.8374,5.3068 35.5254,5.44105 35.2734,5.70955 C35.0574,5.93969286 34.9284612,6.22328469 34.8865837,6.56032551 L34.8729,6.7333 L37.5504,6.7333 C37.5174,6.3823 37.4409,6.1018 37.3209,5.8918 C37.0989,5.5018 36.7284,5.3068 36.2094,5.3068 Z" id="path-1"></path>
        <path d="M30.0309,12.7508 C30.7239,12.7508 31.31265,12.91805 31.79715,13.25255 C32.28165,13.58705 32.5239,14.1218 32.5239,14.8568 L32.5239,14.8568 L31.6824,14.8568 L31.65565,14.686675 C31.6039833,14.4145917 31.5169,14.1998 31.3944,14.0423 C31.1214,13.6973 30.6579,13.5248 30.0039,13.5248 C29.4759,13.5248 29.0964,13.6358 28.8654,13.8578 C28.6344,14.0798 28.5189,14.3378 28.5189,14.6318 C28.5189,14.9558 28.6539,15.1928 28.9239,15.3428 C29.1009,15.4388 29.5014,15.5588 30.1254,15.7028 L30.1254,15.7028 L31.0524,15.9143 L31.2674,15.968425 C31.6115667,16.0638417 31.8849,16.1853 32.0874,16.3328 C32.5074,16.6418 32.7174,17.0903 32.7174,17.6783 C32.7174,18.4103 32.45115,18.9338 31.91865,19.2488 C31.38615,19.5638 30.7674,19.7213 30.0624,19.7213 C29.2404,19.7213 28.5969,19.5113 28.1319,19.0913 C27.6669,18.6743 27.4389,18.1088 27.4479,17.3948 L27.4479,17.3948 L28.2894,17.3948 L28.305525,17.576425 C28.341775,17.8693417 28.4249,18.1133 28.5549,18.3083 C28.8519,18.7463 29.3754,18.9653 30.1254,18.9653 C30.4614,18.9653 30.7674,18.9173 31.0434,18.8213 C31.5774,18.6353 31.8444,18.3023 31.8444,17.8223 C31.8444,17.4623 31.7319,17.2058 31.5069,17.0528 C31.2789,16.9028 30.9219,16.7723 30.4359,16.6613 L30.4359,16.6613 L29.5404,16.4588 L29.3290406,16.4086672 C28.8545719,16.2902141 28.511025,16.161425 28.2984,16.0223 C27.8784,15.7463 27.6684,15.3338 27.6684,14.7848 C27.6684,14.1908 27.8739,13.7033 28.2849,13.3223 C28.6959,12.9413 29.2779,12.7508 30.0309,12.7508 Z M35.7504,14.6003 C36.0924,14.6003 36.4239,14.68055 36.7449,14.84105 C37.0659,15.00155 37.3104,15.2093 37.4784,15.4643 C37.6404,15.7073 37.7484,15.9908 37.8024,16.3148 C37.8435429,16.5050857 37.8670531,16.792351 37.8729306,17.1765959 L37.8744,17.3768 L34.3419,17.3768 L34.3544816,17.580448 C34.391951,17.9758969 34.5032571,18.3002643 34.6884,18.55355 C34.9044,18.84905 35.2389,18.9968 35.6919,18.9968 C36.1149,18.9968 36.4524,18.8573 36.7044,18.5783 C36.8124,18.4568 36.896775,18.3209562 36.957525,18.1707687 L37.0104,18.0158 L37.8069,18.0158 L37.7820094,18.1523469 C37.7479781,18.2926906 37.686525,18.444425 37.59765,18.60755 C37.47915,18.82505 37.3464,19.0028 37.1994,19.1408 C36.9534,19.3808 36.6489,19.5428 36.2859,19.6268 C36.0909,19.6748 35.8704,19.6988 35.6244,19.6988 C35.0244,19.6988 34.5159,19.48055 34.0989,19.04405 C33.6819,18.60755 33.4734,17.9963 33.4734,17.2103 C33.4734,16.4363 33.6834,15.8078 34.1034,15.3248 C34.5234,14.8418 35.0724,14.6003 35.7504,14.6003 Z M53.6784,14.6003 C54.0204,14.6003 54.3519,14.68055 54.6729,14.84105 C54.9939,15.00155 55.2384,15.2093 55.4064,15.4643 C55.5684,15.7073 55.6764,15.9908 55.7304,16.3148 C55.7715429,16.5050857 55.7950531,16.792351 55.8009306,17.1765959 L55.8024,17.3768 L52.2699,17.3768 L52.2824816,17.580448 C52.319951,17.9758969 52.4312571,18.3002643 52.6164,18.55355 C52.8324,18.84905 53.1669,18.9968 53.6199,18.9968 C54.0429,18.9968 54.3804,18.8573 54.6324,18.5783 C54.7404,18.4568 54.824775,18.3209562 54.885525,18.1707687 L54.9384,18.0158 L55.7349,18.0158 L55.7100094,18.1523469 C55.6759781,18.2926906 55.614525,18.444425 55.52565,18.60755 C55.40715,18.82505 55.2744,19.0028 55.1274,19.1408 C54.8814,19.3808 54.5769,19.5428 54.2139,19.6268 C54.0189,19.6748 53.7984,19.6988 53.5524,19.6988 C52.9524,19.6988 52.4439,19.48055 52.0269,19.04405 C51.6099,18.60755 51.4014,17.9963 51.4014,17.2103 C51.4014,16.4363 51.6114,15.8078 52.0314,15.3248 C52.4514,14.8418 53.0004,14.6003 53.6784,14.6003 Z M40.7274,14.5688 C41.2704,14.5688 41.71215,14.7008 42.05265,14.9648 C42.39315,15.2288 42.5979,15.6833 42.6669,16.3283 L42.6669,16.3283 L41.8794,16.3283 L41.84322,16.15613 C41.78514,15.93461 41.6877,15.74525 41.5509,15.58805 C41.3799,15.39155 41.1054,15.2933 40.7274,15.2933 C40.2114,15.2933 39.8424,15.5453 39.6204,16.0493 C39.4764,16.3763 39.4044,16.7798 39.4044,17.2598 C39.4044,17.7428 39.5064,18.1493 39.7104,18.4793 C39.9144,18.8093 40.2354,18.9743 40.6734,18.9743 C41.0094,18.9743 41.27565,18.87155 41.47215,18.66605 C41.66865,18.46055 41.8044,18.1793 41.8794,17.8223 L41.8794,17.8223 L42.6669,17.8223 L42.6319,18.0289389 C42.5252333,18.563013 42.3119,18.9613833 41.9919,19.22405 C41.6319,19.51955 41.1714,19.6673 40.6104,19.6673 C39.9804,19.6673 39.4779,19.43705 39.1029,18.97655 C38.7279,18.51605 38.5404,17.9408 38.5404,17.2508 C38.5404,16.4048 38.7459,15.7463 39.1569,15.2753 C39.5679,14.8043 40.0914,14.5688 40.7274,14.5688 Z M44.2869,14.7083 L44.2869,17.9078 L44.29158,18.05 C44.30406,18.2324 44.3415,18.386 44.4039,18.5108 C44.5479,18.7988 44.8164,18.9428 45.2094,18.9428 C45.7734,18.9428 46.1574,18.6908 46.3614,18.1868 C46.4724,17.9168 46.5279,17.5463 46.5279,17.0753 L46.5279,17.0753 L46.5279,14.7083 L47.3379,14.7083 L47.3379,19.5278 L46.5729,19.5278 L46.5819,18.8168 L46.4983688,18.9487062 C46.4100563,19.0752687 46.3074,19.1858 46.1904,19.2803 C45.8814,19.5323 45.5064,19.6583 45.0654,19.6583 C44.3784,19.6583 43.9104,19.4288 43.6614,18.9698 C43.5264,18.7238 43.4589,18.3953 43.4589,17.9843 L43.4589,17.9843 L43.4589,14.7083 L44.2869,14.7083 Z M50.7084,14.6003 C50.7234,14.6003 50.7489,14.6018 50.7849,14.6048 C50.8209,14.6078 50.8824,14.6138 50.9694,14.6228 L50.9694,14.6228 L50.9694,15.4778 L50.9002125,15.46655 L50.9002125,15.46655 L50.83665,15.4598 C50.79615,15.4568 50.7519,15.4553 50.7039,15.4553 C50.2959,15.4553 49.9824,15.58655 49.7634,15.84905 C49.5444,16.11155 49.4349,16.4138 49.4349,16.7558 L49.4349,16.7558 L49.4349,19.5278 L48.6249,19.5278 L48.6249,14.7083 L49.3944,14.7083 L49.3944,15.5408 L49.433525,15.4568625 C49.5114417,15.3120708 49.6529,15.1428 49.8579,14.94905 C50.1039,14.71655 50.3874,14.6003 50.7084,14.6003 Z M35.7009,15.3068 C35.3289,15.3068 35.0169,15.44105 34.7649,15.70955 C34.5489,15.9396929 34.4199612,16.2232847 34.3780837,16.5603255 L34.3644,16.7333 L37.0419,16.7333 C37.0089,16.3823 36.9324,16.1018 36.8124,15.8918 C36.5904,15.5018 36.2199,15.3068 35.7009,15.3068 Z M53.6289,15.3068 C53.2569,15.3068 52.9449,15.44105 52.6929,15.70955 C52.4769,15.9396929 52.3479612,16.2232847 52.3060837,16.5603255 L52.2924,16.7333 L54.9699,16.7333 C54.9369,16.3823 54.8604,16.1018 54.7404,15.8918 C54.5184,15.5018 54.1479,15.3068 53.6289,15.3068 Z" id="path-2"></path>
    </defs>
    <g id="nm-secure" stroke="none" stroke-width="1" fill="none" fill-rule="evenodd">
        <path d="M0,2.7 L0,8.7 C0,14.9 4.2,20.2 10,22 C15.8,20.2 20,14.9 20,8.7 L20,2.7 L10,0 L0,2.7 Z" id="Path" fill="#A2A4AC" fill-rule="nonzero"></path>
        <path d="M11.7672683,9.33799893 L11.7672683,12.6620674 C12.5527209,12.5642227 13.280047,12.3966594 13.8763514,12.1732416 C14.7781924,11.8379823 15.3163704,11.4050773 15.3163704,11.0000332 C15.3163704,10.594989 14.7781924,10.1620177 13.8763514,9.82682472 C13.2654815,9.60334065 12.5527209,9.43577735 11.7672683,9.33799893 L11.7672683,9.33799893 Z M8.23273171,9.33799893 C7.44727913,9.43577735 6.72002078,9.60334065 6.1236486,9.82682472 C5.22180759,10.1620177 4.68362963,10.594989 4.68362963,11.0000332 C4.68362963,11.4050773 5.22180759,11.8379823 6.1236486,12.1732416 C6.73451852,12.3966594 7.44727913,12.5642227 8.23273171,12.6620674 L8.23273171,9.33799893 Z M10.0072827,9.2402205 C9.6290542,9.2402205 9.2654589,9.25415094 8.91636134,9.28214449 L8.91636134,12.7179218 C9.2654589,12.7458491 9.64361969,12.7597795 10.0072827,12.7597795 C10.3854435,12.7597795 10.7491066,12.7458491 11.0982042,12.7179218 L11.0982042,9.28214449 C10.7491066,9.25415094 10.3709458,9.2402205 10.0072827,9.2402205 L10.0072827,9.2402205 Z M12.7418013,6 L12.9745781,6.6144651 C12.1309313,6.92179716 11.7672683,7.36869896 11.7672683,8.13686326 L11.7672683,8.68154349 C12.6545438,8.77932192 13.4545619,8.960882 14.123626,9.21229328 C15.3309359,9.65919509 16,10.2877233 16,11.0000332 C16,11.7122767 15.3309359,12.3408049 14.123626,12.7877067 C13.4399964,13.039118 12.6399783,13.2206781 11.7672683,13.3184565 L11.7672683,13.8631367 C11.7672683,14.9106395 11.2290903,15.609019 10.1236712,16 L9.89089431,15.3855349 C10.7345411,15.0782692 11.0982042,14.631301 11.0982042,13.8631367 L11.0982042,13.3743109 C10.7345411,13.4022382 10.3709458,13.4162349 10.0072827,13.4162349 C9.64361969,13.4162349 9.2654589,13.4022382 8.91636134,13.3743109 L8.91636134,13.8631367 C8.91636134,14.9106395 8.36361789,15.609019 7.25819873,16 L7.02542186,15.3855349 C7.86906866,15.0782692 8.23273171,14.631301 8.23273171,13.8631367 L8.23273171,13.3184565 C7.34545619,13.2206781 6.54543812,13.039118 5.87637398,12.7877067 C4.66906414,12.3408049 4,11.6983463 4,11.0000332 C4,10.3016537 4.66906414,9.65919509 5.87637398,9.21229328 C6.56000361,8.960882 7.36002168,8.77932192 8.23273171,8.68154349 L8.23273171,8.13686326 C8.23273171,7.08936046 8.77090967,6.39104737 9.89089431,6 L10.1236712,6.6144651 C9.28002439,6.92179716 8.91636134,7.36869896 8.91636134,8.13686326 L8.91636134,8.62568906 C9.28002439,8.59776184 9.64361969,8.58376507 10.0072827,8.58376507 C10.3709458,8.58376507 10.7491066,8.59776184 11.0982042,8.62568906 L11.0982042,8.13686326 C11.0982042,7.08936046 11.6363821,6.39104737 12.7418013,6 L12.7418013,6 Z" id="logo" fill="#FFFFFF" fill-rule="nonzero"></path>
        <g id="newmask" fill-rule="nonzero">
            <use fill="#000000" xlink:href="#path-1"></use>
            <use fill="#A2A4AB" xlink:href="#path-1"></use>
        </g>
        <g id="secure" fill-rule="nonzero">
            <use fill="#000000" xlink:href="#path-2"></use>
            <use fill="#A2A4AB" xlink:href="#path-2"></use>
        </g>
    </g>
</svg>